<?xml version="1.0" encoding="UTF-8" standalone="no"?>
<!-- Created with Inkscape (http://www.inkscape.org/) -->

<svg
   width="9.8596716mm"
   height="10.979568mm"
   viewBox="0 0 9.8596715 10.979568"
   version="1.1"
   id="svg1"
   inkscape:version="1.3.2 (091e20e, 2023-11-25, custom)"
   sodipodi:docname="wf_icon_dark.svg"
   xmlns:inkscape="http://www.inkscape.org/namespaces/inkscape"
   xmlns:sodipodi="http://sodipodi.sourceforge.net/DTD/sodipodi-0.dtd"
   xmlns="http://www.w3.org/2000/svg"
   xmlns:svg="http://www.w3.org/2000/svg">
  <sodipodi:namedview
     id="namedview1"
     pagecolor="#ffffff"
     bordercolor="#666666"
     borderopacity="1.0"
     inkscape:showpageshadow="2"
     inkscape:pageopacity="0.0"
     inkscape:pagecheckerboard="0"
     inkscape:deskcolor="#d1d1d1"
     inkscape:document-units="mm"
     inkscape:zoom="1.70242"
     inkscape:cx="50.810023"
     inkscape:cy="98.389352"
     inkscape:window-width="3840"
     inkscape:window-height="2089"
     inkscape:window-x="-8"
     inkscape:window-y="162"
     inkscape:window-maximized="1"
     inkscape:current-layer="g2" />
  <defs
     id="defs1" />
  <g
     inkscape:label="Ebene 1"
     inkscape:groupmode="layer"
     id="layer1"
     transform="translate(-91.545833,-122.50208)">
    <g
       id="g2"
       transform="translate(91.545833,107.06499)"
       inkscape:label="logo">
      <path
         id="path4-7-2"
         style="fill:#d40000;fill-opacity:1;stroke:none;stroke-width:0.0540162;stroke-linejoin:round;stroke-dasharray:none;stroke-opacity:1"
         d="m 1.520512,25.209471 0.717209,-0.34734 -0.388815,-1.46925 c 1.247762,-0.48797 1.838521,-0.65685 3.590805,-1.33399 l 3.287005,4.35777 c 0,0 0.573393,-0.25125 0.7866994,-0.3449 0.213362,-0.0937 0.317253,-0.14063 0.34089,-0.30212 0.02367,-0.16149 -0.03863,-0.31744 -0.03863,-0.31744 L 8.255902,20.986651 c 0.132427,-0.0471 0.229399,-0.0799 0.238347,-0.0776 0.10308,0.0278 0.134904,0.13667 0.207001,0.16084 0.07211,0.0241 0.186275,-0.0613 0.213075,-0.15698 0.02684,-0.0957 -0.207376,-0.40855 -0.177964,-0.52152 0.08575,-0.0954 0.553839,-0.36855 0.464067,-0.57666 -0.105663,-0.20098 -0.622868,-0.0306 -0.753347,-0.0289 -0.107906,-0.0512 -0.202518,-0.4268 -0.295179,-0.46876 -0.09258,-0.042 -0.233571,-0.0125 -0.261162,0.0564 -0.02747,0.0691 0.03746,0.16294 -0.0074,0.25729 -0.0042,0.008 -0.09245,0.0588 -0.215019,0.12651 L 5.16421,15.716541 c 0,0 -0.08256,-0.14679 -0.224777,-0.23361 -0.142247,-0.0869 -0.246292,-0.0404 -0.457821,0.0573 -0.211492,0.0975 -0.77952,0.3599 -0.77952,0.3599 l 1.303314,5.25039 c -1.664735,0.86043 -2.174818,1.19833 -3.364795,1.80726 L 0.73642899,21.720441 0,22.027361 c 0,0 0.64514399,1.43976 0.61716499,1.45409 -0.02795,0.0143 -0.02105,0.01 -0.37544699,0.19194 -0.354354,0.18221 -0.206974,0.45506 0.203425,0.28643 0.41038799,-0.1686 0.27161799,-0.12397 0.33036999,-0.14699 z m 0.248344,-0.24606 c -0.0073,-0.002 -0.01272,-0.008 -0.01598,-0.0137 l -0.645808,-1.25774 c -0.0067,-0.0134 -0.0013,-0.0295 0.01291,-0.0358 0.01347,-0.006 0.0298,-0.001 0.03634,0.0124 l 0.645808,1.25825 c 0.0066,0.013 0.0019,0.0289 -0.01125,0.0357 -0.0057,0.003 -0.01405,0.003 -0.02087,7.8e-4 z m 7.131783,1.06611 c -0.01235,0.008 -0.02925,0.006 -0.03801,-0.006 l -2.802657,-3.82224 c -0.009,-0.012 -0.006,-0.0286 0.0063,-0.037 0.01218,-0.008 0.02931,-0.006 0.03816,0.006 l 2.802537,3.82217 c 0.0091,0.012 0.0062,0.0291 -0.0063,0.0376 z m -7.95925601,-2.70109 c -0.0062,-0.002 -0.01157,-0.009 -0.01465,-0.0146 L 0.354822,22.022281 c -0.006,-0.0135 4.27e-4,-0.0289 0.01459,-0.0348 0.01382,-0.005 0.02984,9.4e-4 0.0358,0.014 l 0.57254299,1.29102 c 0.006,0.0138 -3.62e-4,0.0296 -0.01469,0.0352 -0.0068,0.003 -0.01438,0.002 -0.02127,7.6e-4 z M 4.692757,21.928901 c -0.11021,-0.0119 -0.08666,-0.0298 -0.08666,-0.0298 0,0 -0.06602,0.0158 0.222262,-0.32742 0.288364,-0.34316 1.527183,-1.04233 1.891127,-1.09944 0.36396,-0.0572 0.442989,0.23634 0.442989,0.23634 0,0 0.171883,0.25022 -0.106807,0.4923 -0.278552,0.24212 -1.610065,0.74023 -2.057161,0.73957 -0.111786,1.2e-4 -0.192284,-0.003 -0.250064,-0.007 -0.02157,-0.001 -0.03996,-0.003 -0.05581,-0.004 z m 0.635642,-1.31 c -0.01477,0.003 -0.02988,-0.005 -0.03358,-0.0197 l -1.194814,-4.5456 c -0.0034,-0.0142 0.0053,-0.0285 0.01947,-0.0321 0.01478,-0.003 0.02958,0.006 0.03318,0.0196 l 1.195302,4.54496 c 0.0046,0.0143 -0.0044,0.0291 -0.01955,0.0328 z"
         sodipodi:nodetypes="cccccscccsscccccccccsscccccsssccccccccccccccccccccccsccccccccsccscccscccccss"
         inkscape:label="wing" />
    </g>
  </g>
</svg>
